<?xml version="1.0" encoding="utf-8"?>
<!-- Generator: Adobe Illustrator 16.0.0, SVG Export Plug-In . SVG Version: 6.00 Build 0)  -->
<!DOCTYPE svg PUBLIC "-//W3C//DTD SVG 1.1//EN" "http://www.w3.org/Graphics/SVG/1.1/DTD/svg11.dtd">
<svg version="1.1" id="Layer_1" xmlns="http://www.w3.org/2000/svg" xmlns:xlink="http://www.w3.org/1999/xlink" x="0px" y="0px"
	 width="640px" height="301px" viewBox="0 0 640 301" enable-background="new 0 0 640 301" xml:space="preserve">
<path fill-rule="evenodd" clip-rule="evenodd" fill="#FFFFFF" d="M480.772,150.373c0.121-35.704,29.462-63.749,64.183-63.416
	c34.377,0.333,63.44,28.592,62.904,64.532c-0.524,35.339-29.839,63.198-64.735,62.547
	C508.965,213.398,480.742,185.432,480.772,150.373z M566.864,150.508c-0.006-12.465-10.137-22.604-22.569-22.588
	c-12.373,0.02-22.499,10.14-22.519,22.509c-0.017,12.474,10.064,22.62,22.511,22.653
	C556.711,173.117,566.869,162.959,566.864,150.508z"/>
<path fill-rule="evenodd" clip-rule="evenodd" fill="#FFFFFF" d="M304.543,86.985c34.62-0.102,63.569,28.194,63.512,63.624
	c-0.059,35.301-28.954,63.531-63.724,63.438c-34.894-0.096-63.292-28.55-63.36-63.506
	C240.904,115.623,269.493,86.861,304.543,86.985z M281.949,150.359c-0.044,12.477,10.032,22.668,22.457,22.72
	c12.419,0.055,22.689-10.057,22.67-22.505c-0.02-12.776-10.207-22.571-22.53-22.644
	C292.195,127.857,281.991,138.022,281.949,150.359z"/>
<path fill-rule="evenodd" clip-rule="evenodd" fill="#FFFFFF" d="M489.562,88.385c-0.322,0.699-0.52,1.169-0.747,1.62
	c-13.682,27.1-27.36,54.202-41.061,81.292c-0.532,1.051-0.764,2.093-0.761,3.264c0.024,12.026,0.014,24.054,0.014,36.08
	c0,0.604,0,1.209,0,1.891c-15.089,0-29.993,0-45.085,0c-0.019-0.552-0.056-1.1-0.056-1.646c-0.002-12.025-0.017-24.053,0.017-36.079
	c0.006-1.325-0.277-2.491-0.874-3.668c-13.64-26.96-27.259-53.934-40.88-80.905c-0.267-0.53-0.512-1.075-0.842-1.768
	c15.389,0,30.532,0,45.729,0c6.421,12.701,12.825,25.373,19.266,38.113c0.611-0.332,0.729-0.916,0.966-1.386
	c5.942-11.742,11.871-23.493,17.8-35.24c0.151-0.294,0.325-0.583,0.454-0.889c0.212-0.506,0.576-0.718,1.119-0.682
	c0.283,0.022,0.569,0.003,0.854,0.003c14.068,0,28.141,0,42.211,0C488.236,88.385,488.789,88.385,489.562,88.385z"/>
<path fill-rule="evenodd" clip-rule="evenodd" fill="#FFFFFF" d="M203.606,88.75c1.177,7.222,1.656,14.354,0.295,21.507
	c-0.94,0.243-157.654,0.304-159.181,0.056c-1.374-7.174-0.898-14.338,0.285-21.563C97.886,88.75,150.655,88.75,203.606,88.75z"/>
<path fill-rule="evenodd" clip-rule="evenodd" fill="#FFFFFF" d="M201.785,119.739c-0.166,0.615-0.297,1.137-0.448,1.653
	c-1.855,6.387-4.156,12.618-6.687,18.765c-0.512,1.242-0.341,1.133-1.744,1.133c-18.266,0.002-36.529,0-54.794,0
	c-27.313,0-54.627,0-81.939,0c-0.546,0-1.089,0-1.581,0c-1.527-2.341-7.23-18.405-7.661-21.51c0.021-0.034,0.036-0.078,0.065-0.104
	c0.029-0.027,0.073-0.052,0.112-0.054c0.333-0.029,0.667-0.073,1-0.073c51.047,0.005,102.097,0.013,153.147,0.024
	C201.371,119.573,201.488,119.644,201.785,119.739z"/>
<path fill-rule="evenodd" clip-rule="evenodd" fill="#FFFFFF" d="M47.292,79.499c0.129-0.48,0.214-0.885,0.346-1.271
	c2.369-7.035,5.778-13.522,10.244-19.462c0.502-0.667,1.023-0.944,1.878-0.944c43.019,0.021,86.04,0.02,129.059,0.007
	c0.76,0,1.313,0.14,1.818,0.812c4.542,6.041,8.029,12.626,10.394,19.805c0.104,0.312,0.163,0.638,0.243,0.954
	C200.334,79.662,49.617,79.764,47.292,79.499z"/>
<path fill-rule="evenodd" clip-rule="evenodd" fill="#FFFFFF" d="M58.449,150.482c43.976,0,87.725,0,131.605,0
	c-0.121,0.39-0.178,0.706-0.313,0.983c-3.244,6.609-6.502,13.206-9.733,19.822c-0.321,0.654-0.714,0.964-1.454,0.908
	c-0.711-0.052-1.429-0.01-2.146-0.01c-35.146,0-70.292,0.002-105.438-0.005c-2.27,0-1.78,0.268-2.739-1.663
	c-3.071-6.178-6.098-12.376-9.139-18.568C58.89,151.539,58.722,151.11,58.449,150.482z"/>
<path fill-rule="evenodd" clip-rule="evenodd" fill="#FFFFFF" d="M174.523,181.449c-0.224,0.451-0.372,0.792-0.555,1.113
	c-3.638,6.448-7.293,12.887-10.907,19.35c-0.463,0.832-0.974,1.176-1.968,1.173c-24.539-0.028-49.075-0.026-73.613-0.005
	c-0.908,0-1.439-0.272-1.89-1.078c-3.592-6.429-7.228-12.828-10.846-19.24c-0.224-0.395-0.407-0.809-0.613-1.228
	C75.105,181.27,172.695,181.187,174.523,181.449z"/>
<path fill-rule="evenodd" clip-rule="evenodd" fill="#FFFFFF" d="M67.593,48.443c0.297-0.277,0.584-0.564,0.896-0.825
	c8.138-6.828,17.37-11.625,27.485-14.762c10.259-3.183,20.769-4.449,31.493-4.123c11.335,0.347,22.279,2.521,32.765,6.877
	c7.234,3.005,13.897,6.97,19.899,12.018c0.312,0.263,0.602,0.548,0.879,0.804c-0.07,0.136-0.082,0.178-0.109,0.209
	c-0.026,0.027-0.068,0.062-0.1,0.062c-37.489,0.017-74.977,0.031-112.466,0.046c-0.202,0-0.402-0.039-0.604-0.059
	C67.686,48.606,67.64,48.524,67.593,48.443z"/>
<path fill-rule="evenodd" clip-rule="evenodd" fill="#FFFFFF" d="M91.745,212.202c21.76,0,43.328,0,65.057,0
	c-0.161,0.363-0.253,0.663-0.412,0.918c-4.103,6.66-8.219,13.311-12.31,19.976c-0.373,0.606-0.801,0.845-1.522,0.843
	c-12.156-0.02-24.312-0.02-36.468-0.003c-0.699,0-1.156-0.18-1.541-0.809c-4.111-6.703-8.248-13.388-12.375-20.082
	C92.044,212.838,91.952,212.611,91.745,212.202z"/>
<path fill-rule="evenodd" clip-rule="evenodd" fill="#FFFFFF" d="M124.307,263.108c-4.554-6.719-9.007-13.21-13.347-20.028
	c8.957,0,17.672,0,26.431,0c0.126,0.509-0.268,0.832-0.504,1.186c-3.602,5.426-7.215,10.844-10.829,16.262
	C125.524,261.326,124.981,262.115,124.307,263.108z"/>
</svg>
