<?xml version="1.0" encoding="utf-8"?>
<!-- Generator: Adobe Illustrator 16.0.0, SVG Export Plug-In . SVG Version: 6.00 Build 0)  -->
<!DOCTYPE svg PUBLIC "-//W3C//DTD SVG 1.1//EN" "http://www.w3.org/Graphics/SVG/1.1/DTD/svg11.dtd">
<svg version="1.1" id="Layer_1" xmlns="http://www.w3.org/2000/svg" xmlns:xlink="http://www.w3.org/1999/xlink" x="0px" y="0px"
	 width="640px" height="221.253px" viewBox="0 0 640 221.253" enable-background="new 0 0 640 221.253" xml:space="preserve">
<g>
	<path fill-rule="evenodd" clip-rule="evenodd" fill="#FFFFFF" d="M416.441,112.282C416.648,51.18,466.862,3.185,526.282,3.754
		c58.832,0.569,108.57,48.931,107.653,110.438c-0.897,60.479-51.066,108.156-110.786,107.041
		C464.69,220.143,416.39,172.28,416.441,112.282z M563.777,112.513c-0.01-21.332-17.348-38.685-38.625-38.656
		c-21.174,0.033-38.504,17.353-38.537,38.521c-0.028,21.347,17.224,38.711,38.524,38.768
		C546.401,151.205,563.786,133.821,563.777,112.513z"/>
	<path fill-rule="evenodd" clip-rule="evenodd" fill="#FFFFFF" d="M114.848,3.803c59.248-0.175,108.791,48.251,108.692,108.885
		c-0.1,60.412-49.551,108.725-109.055,108.564C54.769,221.088,6.169,172.393,6.052,112.569C5.938,52.813,54.864,3.591,114.848,3.803
		z M76.181,112.259c-0.075,21.352,17.169,38.793,38.431,38.882c21.254,0.094,38.831-17.211,38.797-38.515
		c-0.034-21.864-17.468-38.628-38.559-38.751C93.715,73.75,76.252,91.146,76.181,112.259z"/>
	<path fill-rule="evenodd" clip-rule="evenodd" fill="#FFFFFF" d="M431.483,6.197c-0.552,1.196-0.89,2.001-1.278,2.772
		c-23.414,46.378-46.824,92.76-70.27,139.12c-0.911,1.8-1.308,3.583-1.303,5.586c0.042,20.582,0.024,41.165,0.024,61.746
		c0,1.033,0,2.07,0,3.236c-25.823,0-51.33,0-77.158,0c-0.032-0.944-0.096-1.882-0.096-2.818
		c-0.003-20.579-0.028-41.162,0.029-61.744c0.01-2.268-0.475-4.263-1.496-6.277c-23.342-46.139-46.65-92.301-69.96-138.459
		c-0.456-0.907-0.876-1.841-1.441-3.025c26.336,0,52.252,0,78.259,0c10.988,21.737,21.948,43.423,32.97,65.227
		c1.046-0.568,1.248-1.568,1.654-2.372c10.169-20.095,20.315-40.205,30.462-60.309c0.259-0.504,0.557-0.998,0.776-1.521
		c0.363-0.866,0.986-1.229,1.916-1.166c0.484,0.038,0.975,0.005,1.462,0.005c24.076,0,48.159,0,72.239,0
		C429.215,6.197,430.161,6.197,431.483,6.197z"/>
</g>
</svg>
