<svg xmlns="http://www.w3.org/2000/svg" width="28.763" height="28.944" viewBox="0 0 28.763 28.944">
    <defs>
        <style>
            .cls-1{fill:#7b7b7b}
        </style>
    </defs>
    <path id="discuss-issue" d="M166.763 21.7v12.95a5.531 5.531 0 0 1-5.525 5.554h-14.92c-.292 0-.532 0-.733-.006s-.448-.006-.54 0c-.1.064-.332.28-.56.49-.09.083-.192.174-.3.275l-4.221 3.848a1.177 1.177 0 0 1-1.962-.85V21.7a5.581 5.581 0 0 1 5.608-5.529h17.63a5.509 5.509 0 0 1 5.523 5.529zm-2.3 0a3.206 3.206 0 0 0-3.224-3.228h-17.63A3.277 3.277 0 0 0 140.3 21.7v19.66l2.313-2.09c.107-.1.227-.187.315-.268a2.9 2.9 0 0 1 2.7-1.1c.188 0 .412.005.684.005h14.921a3.227 3.227 0 0 0 3.224-3.253z" class="cls-1" transform="translate(-138 -16.174)"/>
</svg>
