<svg xmlns="http://www.w3.org/2000/svg" width="15.779" height="9.406" viewBox="0 0 15.779 9.406">
    <defs>
        <style>
            .cls-1{fill:#969696}
        </style>
    </defs>
    <g id="eye">
        <path id="Path_140" d="M7.889 98.725a9.843 9.843 0 0 0-7.766 4.328.625.625 0 0 0 0 .746 9.838 9.838 0 0 0 7.766 4.332 9.843 9.843 0 0 0 7.766-4.328.625.625 0 0 0 0-.746 9.838 9.838 0 0 0-7.766-4.332zm.216 8.015a3.319 3.319 0 1 1 3.1-3.1 3.321 3.321 0 0 1-3.099 3.1zm-.1-1.53a1.787 1.787 0 1 1 1.669-1.669 1.784 1.784 0 0 1-1.668 1.669z" class="cls-1" data-name="Path 140" transform="translate(0 -98.725)"/>
    </g>
</svg>
