<svg xmlns="http://www.w3.org/2000/svg" width="21.107" height="21" viewBox="0 0 21.107 21">
    <defs>
        <style>
            .cls-1{fill:#616161}
        </style>
    </defs>
    <path id="notification" d="M20.277 16.385c-1.9-1.641-3.653-3.956-3.653-9.735a6.071 6.071 0 0 0-12.142 0c0 5.785-1.755 8.1-3.654 9.737A2.4 2.4 0 0 0 0 18.2a.691.691 0 0 0 .691.691h6.553a3.381 3.381 0 0 0 6.619 0h6.553a.691.691 0 0 0 .691-.691 2.39 2.39 0 0 0-.83-1.815zM10.553 20.2a2 2 0 0 1-1.877-1.309h3.754a2 2 0 0 1-1.877 1.309zm-8.9-2.691a1.017 1.017 0 0 1 .08-.078c2.9-2.5 4.13-5.723 4.13-10.78a4.69 4.69 0 0 1 9.379 0c0 5.052 1.235 8.276 4.132 10.781a1.027 1.027 0 0 1 .08.077z" class="cls-1" transform="translate(0 -.58)"/>
</svg>
