<?xml version="1.0" encoding="utf-8"?>
<!-- Generator: Adobe Illustrator 16.0.0, SVG Export Plug-In . SVG Version: 6.00 Build 0)  -->
<!DOCTYPE svg PUBLIC "-//W3C//DTD SVG 1.1//EN" "http://www.w3.org/Graphics/SVG/1.1/DTD/svg11.dtd">
<svg version="1.1" id="Layer_1" xmlns="http://www.w3.org/2000/svg" xmlns:xlink="http://www.w3.org/1999/xlink" x="0px" y="0px"
	 width="194px" height="301px" viewBox="0 0 194 301" enable-background="new 0 0 194 301" xml:space="preserve">
<path fill-rule="evenodd" clip-rule="evenodd" fill="#FFFFFF" d="M185.576,85.589c1.337,8.204,1.881,16.305,0.337,24.427
	c-1.069,0.277-179.079,0.349-180.813,0.064c-1.559-8.147-1.021-16.285,0.324-24.491C65.492,85.589,125.432,85.589,185.576,85.589z"
	/>
<path fill-rule="evenodd" clip-rule="evenodd" fill="#FFFFFF" d="M183.509,120.789c-0.188,0.698-0.338,1.291-0.509,1.878
	c-2.109,7.255-4.722,14.331-7.595,21.314c-0.581,1.412-0.39,1.284-1.982,1.285c-20.747,0.002-41.494,0.001-62.24,0.001
	c-31.024,0-62.049,0-93.073,0c-0.618,0-1.236,0-1.797,0c-1.731-2.659-8.21-20.906-8.7-24.432c0.024-0.041,0.041-0.09,0.074-0.119
	c0.033-0.031,0.083-0.059,0.128-0.062c0.378-0.032,0.758-0.083,1.136-0.083c57.985,0.005,115.971,0.014,173.956,0.028
	C183.039,120.601,183.171,120.68,183.509,120.789z"/>
<path fill-rule="evenodd" clip-rule="evenodd" fill="#FFFFFF" d="M8.021,75.081c0.147-0.546,0.245-1.003,0.394-1.443
	c2.69-7.993,6.564-15.361,11.635-22.105c0.571-0.76,1.162-1.075,2.135-1.074c48.864,0.024,97.729,0.023,146.594,0.01
	c0.864-0.001,1.491,0.154,2.066,0.92c5.158,6.86,9.121,14.34,11.807,22.494c0.116,0.354,0.186,0.724,0.275,1.083
	C181.859,75.265,10.663,75.383,8.021,75.081z"/>
<path fill-rule="evenodd" clip-rule="evenodd" fill="#FFFFFF" d="M20.694,155.708c49.952,0,99.647,0,149.489,0
	c-0.138,0.442-0.201,0.803-0.356,1.119c-3.685,7.505-7.387,15.001-11.057,22.513c-0.363,0.744-0.811,1.096-1.65,1.034
	c-0.808-0.06-1.625-0.013-2.438-0.013c-39.921,0.001-79.843,0.003-119.764-0.005c-2.577,0-2.023,0.305-3.113-1.889
	c-3.485-7.018-6.926-14.057-10.379-21.09C21.197,156.909,21.006,156.422,20.694,155.708z"/>
<path fill-rule="evenodd" clip-rule="evenodd" fill="#FFFFFF" d="M152.543,190.883c-0.254,0.513-0.424,0.899-0.63,1.265
	c-4.133,7.325-8.285,14.639-12.389,21.979c-0.528,0.945-1.109,1.336-2.237,1.334c-27.871-0.034-55.743-0.032-83.615-0.007
	c-1.03,0.001-1.634-0.309-2.146-1.227c-4.08-7.3-8.211-14.57-12.32-21.854c-0.253-0.446-0.46-0.919-0.696-1.394
	C39.614,190.681,150.466,190.585,152.543,190.883z"/>
<path fill-rule="evenodd" clip-rule="evenodd" fill="#FFFFFF" d="M31.082,39.805c0.339-0.313,0.665-0.642,1.018-0.938
	c9.243-7.754,19.73-13.204,31.221-16.769c11.652-3.615,23.591-5.052,35.772-4.681c12.874,0.393,25.306,2.862,37.217,7.811
	c8.218,3.413,15.785,7.915,22.604,13.65c0.353,0.298,0.682,0.623,0.998,0.913c-0.08,0.154-0.096,0.202-0.127,0.237
	c-0.029,0.031-0.074,0.068-0.113,0.068c-42.582,0.021-85.165,0.037-127.748,0.052c-0.228,0-0.455-0.043-0.684-0.066
	C31.188,39.99,31.135,39.897,31.082,39.805z"/>
<path fill-rule="evenodd" clip-rule="evenodd" fill="#FFFFFF" d="M58.516,225.814c24.718,0,49.216,0,73.896,0
	c-0.184,0.415-0.288,0.753-0.468,1.045c-4.659,7.563-9.333,15.117-13.98,22.688c-0.424,0.69-0.911,0.96-1.729,0.958
	c-13.809-0.022-27.615-0.021-41.424-0.003c-0.794,0.001-1.313-0.205-1.75-0.919c-4.668-7.614-9.37-15.208-14.059-22.809
	C58.855,226.539,58.749,226.279,58.516,225.814z"/>
<path fill-rule="evenodd" clip-rule="evenodd" fill="#FFFFFF" d="M95.503,283.64c-5.173-7.631-10.233-15.007-15.16-22.752
	c10.172,0,20.071,0,30.021,0c0.145,0.579-0.304,0.945-0.572,1.35c-4.092,6.162-8.197,12.315-12.301,18.469
	C96.886,281.612,96.269,282.511,95.503,283.64z"/>
</svg>
