<svg xmlns="http://www.w3.org/2000/svg" id="delete" width="10.582" height="13.029" viewBox="0 0 10.582 13.029">
    <defs>
        <style>
            .cls-1{fill:#f75d5d}
        </style>
    </defs>
    <path id="Path_136" d="M222.7 154.7a.305.305 0 0 0-.305.305v5.767a.305.305 0 1 0 .61 0v-5.767a.305.305 0 0 0-.305-.305zm0 0" class="cls-1" data-name="Path 136" transform="translate(-215.612 -149.982)"/>
    <path id="Path_137" d="M104.7 154.7a.305.305 0 0 0-.305.305v5.767a.305.305 0 1 0 .61 0v-5.767a.305.305 0 0 0-.305-.305zm0 0" class="cls-1" data-name="Path 137" transform="translate(-101.212 -149.982)"/>
    <path id="Path_138" d="M.863 3.877V11.4a1.683 1.683 0 0 0 .448 1.161 1.5 1.5 0 0 0 1.09.471h5.773a1.5 1.5 0 0 0 1.09-.471 1.683 1.683 0 0 0 .448-1.161V3.877a1.166 1.166 0 0 0-.3-2.292H7.851V1.2A1.2 1.2 0 0 0 6.643 0h-2.71a1.2 1.2 0 0 0-1.208 1.2v.381H1.162a1.166 1.166 0 0 0-.3 2.292zm7.311 8.54H2.4a.966.966 0 0 1-.926-1.017V3.9H9.1v7.5a.966.966 0 0 1-.928 1.022zM3.335 1.2a.588.588 0 0 1 .6-.6h2.71a.588.588 0 0 1 .6.6v.381h-3.91zm-2.173 1h8.251a.549.549 0 1 1 0 1.1H1.162a.549.549 0 1 1 0-1.1zm0 0" class="cls-1" data-name="Path 138" transform="translate(.003 .002)"/>
    <path id="Path_139" d="M163.7 154.7a.305.305 0 0 0-.305.305v5.767a.305.305 0 1 0 .61 0v-5.767a.305.305 0 0 0-.305-.305zm0 0" class="cls-1" data-name="Path 139" transform="translate(-158.412 -149.982)"/>
</svg>
