<svg xmlns="http://www.w3.org/2000/svg" id="hospital_new" width="36.697" height="36.697" viewBox="0 0 36.697 36.697">
    <defs>
        <style>
            .cls-1{fill:#dae2f2}
        </style>
    </defs>
    <path id="Path_66" d="M184.612 38.116h1.835v1.835a.612.612 0 0 0 .612.612h2.441a.612.612 0 0 0 .612-.612v-1.835h1.835a.612.612 0 0 0 .612-.612v-2.446a.612.612 0 0 0-.612-.612h-1.835v-1.834A.612.612 0 0 0 189.5 32h-2.446a.612.612 0 0 0-.612.612v1.835h-1.835a.612.612 0 0 0-.612.612V37.5a.612.612 0 0 0 .617.616zm.612-2.446h1.835a.612.612 0 0 0 .612-.612v-1.835h1.223v1.835a.612.612 0 0 0 .612.612h1.835v1.223H189.5a.612.612 0 0 0-.612.612v1.835h-1.218V37.5a.612.612 0 0 0-.612-.612h-1.835zm0 0" class="cls-1" data-name="Path 66" transform="translate(-169.933 -29.554)"/>
    <path id="Path_67" d="M36.086 7.339h-7.951V.612A.612.612 0 0 0 27.523 0H9.174a.612.612 0 0 0-.612.612v6.727H.612A.612.612 0 0 0 0 7.951v28.135a.612.612 0 0 0 .612.612h35.474a.612.612 0 0 0 .612-.612V7.951a.612.612 0 0 0-.612-.612zM8.563 35.474h-7.34V8.563h7.34zm9.174 0h-2.446v-2.446h2.446zm3.67 0H18.96v-2.446h2.446zm5.5-27.523v27.523H22.63v-3.058a.612.612 0 0 0-.612-.612h-7.339a.612.612 0 0 0-.612.612v3.058H9.786V1.223h17.125zm8.563 27.523h-7.335V8.563h7.339zm0 0" class="cls-1" data-name="Path 67"/>
    <path id="Path_68" d="M216 208h1.223v1.835H216zm0 0" class="cls-1" data-name="Path 68" transform="translate(-199.486 -192.098)"/>
    <path id="Path_69" d="M248 208h1.223v1.835H248zm0 0" class="cls-1" data-name="Path 69" transform="translate(-229.04 -192.098)"/>
    <path id="Path_70" d="M280 208h1.223v1.835H280zm0 0" class="cls-1" data-name="Path 70" transform="translate(-258.593 -192.098)"/>
    <path id="Path_71" d="M312 208h1.223v1.835H312zm0 0" class="cls-1" data-name="Path 71" transform="translate(-288.147 -192.098)"/>
    <path id="Path_72" d="M216 248h1.223v1.835H216zm0 0" class="cls-1" data-name="Path 72" transform="translate(-199.486 -229.04)"/>
    <path id="Path_73" d="M248 248h1.223v1.835H248zm0 0" class="cls-1" data-name="Path 73" transform="translate(-229.04 -229.04)"/>
    <path id="Path_74" d="M280 248h1.223v1.835H280zm0 0" class="cls-1" data-name="Path 74" transform="translate(-258.593 -229.04)"/>
    <path id="Path_75" d="M312 248h1.223v1.835H312zm0 0" class="cls-1" data-name="Path 75" transform="translate(-288.147 -229.04)"/>
    <path id="Path_76" d="M216 288h1.223v1.835H216zm0 0" class="cls-1" data-name="Path 76" transform="translate(-199.486 -265.982)"/>
    <path id="Path_77" d="M248 288h1.223v1.835H248zm0 0" class="cls-1" data-name="Path 77" transform="translate(-229.04 -265.982)"/>
    <path id="Path_78" d="M280 288h1.223v1.835H280zm0 0" class="cls-1" data-name="Path 78" transform="translate(-258.593 -265.982)"/>
    <path id="Path_79" d="M312 288h1.223v1.835H312zm0 0" class="cls-1" data-name="Path 79" transform="translate(-288.147 -265.982)"/>
    <path id="Path_80" d="M216 328h1.223v1.835H216zm0 0" class="cls-1" data-name="Path 80" transform="translate(-199.486 -302.924)"/>
    <path id="Path_81" d="M248 328h1.223v1.835H248zm0 0" class="cls-1" data-name="Path 81" transform="translate(-229.04 -302.924)"/>
    <path id="Path_82" d="M280 328h1.223v1.835H280zm0 0" class="cls-1" data-name="Path 82" transform="translate(-258.593 -302.924)"/>
    <path id="Path_83" d="M312 328h1.223v1.835H312zm0 0" class="cls-1" data-name="Path 83" transform="translate(-288.147 -302.924)"/>
    <path id="Path_84" d="M216 368h1.223v1.835H216zm0 0" class="cls-1" data-name="Path 84" transform="translate(-199.486 -339.865)"/>
    <path id="Path_85" d="M248 368h1.223v1.835H248zm0 0" class="cls-1" data-name="Path 85" transform="translate(-229.04 -339.865)"/>
    <path id="Path_86" d="M152 208h1.223v1.835H152zm0 0" class="cls-1" data-name="Path 86" transform="translate(-140.379 -192.098)"/>
    <path id="Path_87" d="M184 208h1.223v1.835H184zm0 0" class="cls-1" data-name="Path 87" transform="translate(-169.933 -192.098)"/>
    <path id="Path_88" d="M216 168h1.223v1.835H216zm0 0" class="cls-1" data-name="Path 88" transform="translate(-199.486 -155.156)"/>
    <path id="Path_89" d="M248 168h1.223v1.835H248zm0 0" class="cls-1" data-name="Path 89" transform="translate(-229.04 -155.156)"/>
    <path id="Path_90" d="M280 168h1.223v1.835H280zm0 0" class="cls-1" data-name="Path 90" transform="translate(-258.593 -155.156)"/>
    <path id="Path_91" d="M312 168h1.223v1.835H312zm0 0" class="cls-1" data-name="Path 91" transform="translate(-288.147 -155.156)"/>
    <path id="Path_92" d="M152 168h1.223v1.835H152zm0 0" class="cls-1" data-name="Path 92" transform="translate(-140.379 -155.156)"/>
    <path id="Path_93" d="M184 168h1.223v1.835H184zm0 0" class="cls-1" data-name="Path 93" transform="translate(-169.933 -155.156)"/>
    <path id="Path_94" d="M152 248h1.223v1.835H152zm0 0" class="cls-1" data-name="Path 94" transform="translate(-140.379 -229.04)"/>
    <path id="Path_95" d="M184 248h1.223v1.835H184zm0 0" class="cls-1" data-name="Path 95" transform="translate(-169.933 -229.04)"/>
    <path id="Path_96" d="M152 288h1.223v1.835H152zm0 0" class="cls-1" data-name="Path 96" transform="translate(-140.379 -265.982)"/>
    <path id="Path_97" d="M184 288h1.223v1.835H184zm0 0" class="cls-1" data-name="Path 97" transform="translate(-169.933 -265.982)"/>
    <path id="Path_98" d="M152 328h1.223v1.835H152zm0 0" class="cls-1" data-name="Path 98" transform="translate(-140.379 -302.924)"/>
    <path id="Path_99" d="M184 328h1.223v1.835H184zm0 0" class="cls-1" data-name="Path 99" transform="translate(-169.933 -302.924)"/>
    <path id="Path_100" d="M152 368h1.223v1.835H152zm0 0" class="cls-1" data-name="Path 100" transform="translate(-140.379 -339.865)"/>
    <path id="Path_101" d="M184 368h1.223v1.835H184zm0 0" class="cls-1" data-name="Path 101" transform="translate(-169.933 -339.865)"/>
    <path id="Path_102" d="M280 368h1.223v1.835H280zm0 0" class="cls-1" data-name="Path 102" transform="translate(-258.593 -339.865)"/>
    <path id="Path_103" d="M312 368h1.223v1.835H312zm0 0" class="cls-1" data-name="Path 103" transform="translate(-288.147 -339.865)"/>
    <path id="Path_104" d="M72 208h1.223v1.835H72zm0 0" class="cls-1" data-name="Path 104" transform="translate(-66.495 -192.098)"/>
    <path id="Path_105" d="M72 248h1.223v1.835H72zm0 0" class="cls-1" data-name="Path 105" transform="translate(-66.495 -229.04)"/>
    <path id="Path_106" d="M72 288h1.223v1.835H72zm0 0" class="cls-1" data-name="Path 106" transform="translate(-66.495 -265.982)"/>
    <path id="Path_107" d="M72 328h1.223v1.835H72zm0 0" class="cls-1" data-name="Path 107" transform="translate(-66.495 -302.924)"/>
    <path id="Path_108" d="M72 368h1.223v1.835H72zm0 0" class="cls-1" data-name="Path 108" transform="translate(-66.495 -339.865)"/>
    <path id="Path_109" d="M40 208h1.223v1.835H40zm0 0" class="cls-1" data-name="Path 109" transform="translate(-36.942 -192.098)"/>
    <path id="Path_110" d="M72 168h1.223v1.835H72zm0 0" class="cls-1" data-name="Path 110" transform="translate(-66.495 -155.156)"/>
    <path id="Path_111" d="M40 168h1.223v1.835H40zm0 0" class="cls-1" data-name="Path 111" transform="translate(-36.942 -155.156)"/>
    <path id="Path_112" d="M40 248h1.223v1.835H40zm0 0" class="cls-1" data-name="Path 112" transform="translate(-36.942 -229.04)"/>
    <path id="Path_113" d="M40 288h1.223v1.835H40zm0 0" class="cls-1" data-name="Path 113" transform="translate(-36.942 -265.982)"/>
    <path id="Path_114" d="M40 328h1.223v1.835H40zm0 0" class="cls-1" data-name="Path 114" transform="translate(-36.942 -302.924)"/>
    <path id="Path_115" d="M40 368h1.223v1.835H40zm0 0" class="cls-1" data-name="Path 115" transform="translate(-36.942 -339.865)"/>
    <path id="Path_116" d="M72 408h1.223v1.835H72zm0 0" class="cls-1" data-name="Path 116" transform="translate(-66.495 -376.807)"/>
    <path id="Path_117" d="M40 408h1.223v1.835H40zm0 0" class="cls-1" data-name="Path 117" transform="translate(-36.942 -376.807)"/>
    <path id="Path_118" d="M424 208h1.223v1.835H424zm0 0" class="cls-1" data-name="Path 118" transform="translate(-391.584 -192.098)"/>
    <path id="Path_119" d="M424 248h1.223v1.835H424zm0 0" class="cls-1" data-name="Path 119" transform="translate(-391.584 -229.04)"/>
    <path id="Path_120" d="M424 288h1.223v1.835H424zm0 0" class="cls-1" data-name="Path 120" transform="translate(-391.584 -265.982)"/>
    <path id="Path_121" d="M424 328h1.223v1.835H424zm0 0" class="cls-1" data-name="Path 121" transform="translate(-391.584 -302.924)"/>
    <path id="Path_122" d="M424 368h1.223v1.835H424zm0 0" class="cls-1" data-name="Path 122" transform="translate(-391.584 -339.865)"/>
    <path id="Path_123" d="M392 208h1.223v1.835H392zm0 0" class="cls-1" data-name="Path 123" transform="translate(-362.031 -192.098)"/>
    <path id="Path_124" d="M424 168h1.223v1.835H424zm0 0" class="cls-1" data-name="Path 124" transform="translate(-391.584 -155.156)"/>
    <path id="Path_125" d="M392 168h1.223v1.835H392zm0 0" class="cls-1" data-name="Path 125" transform="translate(-362.031 -155.156)"/>
    <path id="Path_126" d="M392 248h1.223v1.835H392zm0 0" class="cls-1" data-name="Path 126" transform="translate(-362.031 -229.04)"/>
    <path id="Path_127" d="M392 288h1.223v1.835H392zm0 0" class="cls-1" data-name="Path 127" transform="translate(-362.031 -265.982)"/>
    <path id="Path_128" d="M392 328h1.223v1.835H392zm0 0" class="cls-1" data-name="Path 128" transform="translate(-362.031 -302.924)"/>
    <path id="Path_129" d="M392 368h1.223v1.835H392zm0 0" class="cls-1" data-name="Path 129" transform="translate(-362.031 -339.865)"/>
    <path id="Path_130" d="M424 408h1.223v1.835H424zm0 0" class="cls-1" data-name="Path 130" transform="translate(-391.584 -376.807)"/>
    <path id="Path_131" d="M392 408h1.223v1.835H392zm0 0" class="cls-1" data-name="Path 131" transform="translate(-362.031 -376.807)"/>
</svg>
