<svg xmlns="http://www.w3.org/2000/svg" width="43.226" height="36.478" viewBox="0 0 43.226 36.478">
    <defs>
        <style>
            .cls-1{fill:#1e88e5}
        </style>
    </defs>
    <path id="dropper" d="M.676 41.473a.675.675 0 0 0 .675-.675v-3.953c0-.017-.009-.032-.01-.049s.01-.032.01-.049A4.057 4.057 0 0 1 5.4 32.7h3.043l3.85 5.141c.015.02.039.028.056.046a.588.588 0 0 0 .08.09.628.628 0 0 0 .076.04.59.59 0 0 0 .065.034.662.662 0 0 0 .263.061.669.669 0 0 0 .263-.061.705.705 0 0 0 .067-.035.722.722 0 0 0 .075-.039.709.709 0 0 0 .08-.089c.017-.018.041-.026.056-.047l3.85-5.141h3.039a4.057 4.057 0 0 1 4.053 4.053c0 .017.009.032.01.049s-.01.032-.01.049V40.8a.675.675 0 0 0 1.351 0v-2.018h5.065a3.381 3.381 0 0 0 3.377-3.377v-3.376h.338a.675.675 0 0 0 .675-.675v-4.728a.675.675 0 0 0-.675-.675h-.337v-.684h3.69a.675.675 0 0 0 .474-.195l2.055-2.028a.674.674 0 0 0 .2-.481V8.388a.675.675 0 0 0-.675-.675H38.5V6.356h3.376v34.45a.675.675 0 0 0 1.351 0V5.681a.675.675 0 0 0-.675-.675H24.991a.675.675 0 0 0 0 1.351h3.377v1.355h-1.35a.675.675 0 0 0-.675.675v14.177a.674.674 0 0 0 .2.478l2.026 2.028a.674.674 0 0 0 .478.2h3.715v.684h-.338a.675.675 0 0 0-.675.675v4.728a.675.675 0 0 0 .675.675h.338v3.376a2.029 2.029 0 0 1-2.026 2.026h-5.069v-.586c0-.017-.009-.032-.01-.049s.01-.032.01-.049a5.41 5.41 0 0 0-5.4-5.4h-2.7v-1.858a10.138 10.138 0 0 0 5.4-8.953V13.11a4.731 4.731 0 0 0-4.053-4.674V5.68a.675.675 0 0 0-.676-.68h-6.755A8.791 8.791 0 0 0 2.7 13.785v6.755a10.138 10.138 0 0 0 5.4 8.954v1.853H5.4a5.41 5.41 0 0 0-5.4 5.4c0 .017.009.032.01.049s-.01.032-.01.049V40.8a.674.674 0 0 0 .675.673zM29.719 6.356h7.43v1.356h-7.43zm9.456 2.707v6.747H27.693V9.063zM27.693 22.284v-5.123h11.482v5.12l-1.656 1.635h-8.2zM33.1 27.3h.675v.675H33.1zm.675 2.026v1.351H33.1v-1.349zM11.483 6.354h6.079v2.7a.675.675 0 0 0 .675.675 3.381 3.381 0 0 1 3.377 3.377v2.421l-1.548-1.547h-.007a.668.668 0 0 0-.14-.093.682.682 0 0 0-.081-.051.7.7 0 0 0-.113-.022.3.3 0 0 0-.225-.014.659.659 0 0 0-.176.038h-.008a18.2 18.2 0 0 1-6.484 1.294 18.27 18.27 0 0 1-6.484-1.295h-.009a.648.648 0 0 0-.163-.035.685.685 0 0 0-.1-.018.744.744 0 0 0-.076.014.679.679 0 0 0-.178.034c-.017.007-.03.022-.047.03a.674.674 0 0 0-.173.114h-.007l-1.543 1.548v-1.741a7.44 7.44 0 0 1 7.431-7.429zM4.054 20.538v-.008-3.097l2.188-2.183a19.488 19.488 0 0 0 6.592 1.235 19.512 19.512 0 0 0 6.592-1.234l2.189 2.189v3.1a8.781 8.781 0 1 1-17.561 0zm8.781 10.131a10.052 10.052 0 0 0 3.377-.591v1.716L12.834 36.3l-3.377-4.51v-1.712a10.052 10.052 0 0 0 3.377.591z" class="cls-1" transform="translate(-.001 -5.004)"/>
</svg>
