<svg xmlns="http://www.w3.org/2000/svg" width="32.383" height="36.512" viewBox="0 0 32.383 36.512">
    <defs>
        <style>
            .cls-1{fill:#fdc600}
        </style>
    </defs>
    <g id="doctor_new" transform="translate(-28.952)">
        <g id="Group_15" data-name="Group 15" transform="translate(28.952)">
            <path id="Path_65" d="M61.312 34.643L59.7 25.186a2.692 2.692 0 0 0-1.89-2.136l-4.357-1.315a4.859 4.859 0 0 0-3.372-4.22c.138-.153.266-.306.383-.455A8.456 8.456 0 0 0 52.2 13.3h.336a1.587 1.587 0 0 0 1.585-1.585V10.9a1.6 1.6 0 0 0-.821-1.383V7.563a.535.535 0 1 0-1.069 0v2.194a3.3 3.3 0 0 0-.711.206.537.537 0 0 0-.075.034 2.738 2.738 0 0 0-.172.085v-4.31a2.161 2.161 0 0 0-2.163-2.159h-1.476a2.218 2.218 0 0 0-1.4.5l-.145.118a1.494 1.494 0 0 1-1.891 0l-.145-.118a2.219 2.219 0 0 0-1.4-.5h-1.476a2.161 2.161 0 0 0-2.159 2.159v4.309a2.738 2.738 0 0 0-.172-.085.536.536 0 0 0-.075-.034 3.3 3.3 0 0 0-.711-.206V4.209a3.143 3.143 0 0 1 3.14-3.14h7.887a3.143 3.143 0 0 1 3.14 3.14v.84a.535.535 0 1 0 1.069 0v-.84A4.214 4.214 0 0 0 49.087 0H41.2a4.214 4.214 0 0 0-4.209 4.209v5.308a1.6 1.6 0 0 0-.822 1.386v.813a1.587 1.587 0 0 0 1.585 1.584h.336a8.455 8.455 0 0 0 1.732 3.76c.117.149.245.3.383.454a4.877 4.877 0 0 0-3.371 4.22l-4.357 1.316a2.692 2.692 0 0 0-1.886 2.136l-.656 3.84a.535.535 0 0 0 1.054.18l.656-3.84a1.628 1.628 0 0 1 1.141-1.292l4.03-1.216v1.058a2.675 2.675 0 0 0-2.034 1.684 2.712 2.712 0 0 0-.159.726l-.389 5a1.359 1.359 0 0 0 1.355 1.465h.667a.535.535 0 1 0 0-1.069h-.667a.29.29 0 0 1-.289-.312l.389-5a1.642 1.642 0 0 1 .1-.44 1.617 1.617 0 0 1 1.513-1.03h.1a1.6 1.6 0 0 1 1.493.958 1.64 1.64 0 0 1 .125.513l.39 5a.29.29 0 0 1-.289.312h-.667a.535.535 0 1 0 0 1.069h.667a1.359 1.359 0 0 0 1.355-1.465l-.39-5a2.708 2.708 0 0 0-.207-.847 2.647 2.647 0 0 0-1.992-1.566v-1.378l1.838-.555c.167.352.5 1.113 1.155 2.754s1.484 3.777 2.273 5.84a.542.542 0 0 0 .019.051 687.914 687.914 0 0 1 1.473 3.889.535.535 0 0 0 1 0 739.27 739.27 0 0 1 1.473-3.889.532.532 0 0 0 .019-.051c.788-2.062 1.61-4.182 2.271-5.837s.989-2.4 1.156-2.757l1.838.555v3.158a2.766 2.766 0 1 0 1.069 0v-2.836l4.03 1.216a1.628 1.628 0 0 1 1.141 1.292l1.615 9.456a.531.531 0 0 1-.523.62H30.552a.531.531 0 0 1-.523-.62l.533-3.121a.535.535 0 0 0-1.054-.18l-.533 3.121a1.6 1.6 0 0 0 1.577 1.87h29.183a1.6 1.6 0 0 0 1.577-1.87zm-9.078-23.8a2.3 2.3 0 0 1 .516-.07.547.547 0 0 0 .261-.062.506.506 0 0 1 .038.189v.813a.517.517 0 0 1-.516.516h-.3v-1.383zm-14.18 1.386h-.3a.517.517 0 0 1-.516-.516V10.9a.507.507 0 0 1 .038-.189.545.545 0 0 0 .261.062 2.384 2.384 0 0 1 .516.07zm1.069.6v-1.4a.75.75 0 0 0 .965-.719V5.772a1.091 1.091 0 0 1 1.09-1.09h1.476a1.146 1.146 0 0 1 .724.258l.145.118a2.563 2.563 0 0 0 3.245 0l.145-.118a1.146 1.146 0 0 1 .724-.258h1.473a1.091 1.091 0 0 1 1.09 1.09v4.936a.75.75 0 0 0 .965.72v1.4a6.915 6.915 0 0 1-1.54 3.569 7.049 7.049 0 0 1-1.282 1.27.536.536 0 0 0-.048.036 5.212 5.212 0 0 1-6.3 0 .543.543 0 0 0-.048-.036 7.055 7.055 0 0 1-1.282-1.27 6.916 6.916 0 0 1-1.542-3.565zm9.524 8.638l-3.5 2.618-3.5-2.618a2.536 2.536 0 0 0 .542-1.514v-.862a6.279 6.279 0 0 0 5.922 0v.862a2.536 2.536 0 0 0 .535 1.517zm-7.9-.6a1.462 1.462 0 0 0-.9-.045l-.038.01-1.847.557a3.8 3.8 0 0 1 3.152-3v1.556a1.414 1.414 0 0 1-.366.928zm1.453 4.299v-.007l-.08-.2-.014-.036-.077-.194-.005-.013-.229-.573-.016-.04-.062-.155-.023-.056-.059-.147-.017-.043-.1-.256-.028-.068-.039-.1-.042-.1-.016-.038-.012-.029-.176-.424-.087-.206-.043-.1 3.013 2.252-1.259.535h-.007l-.526.223zm1.276 3.274l-.319-.825-.478-1.23.2-.085.815.948zm1.679 4.346a.532.532 0 0 0-.055-.09c-.242-.639-.548-1.447-.888-2.336l.5-2.733h.866l.5 2.733c-.358.931-.678 1.773-.924 2.425zm.623-6.228H44.51l-.6-.7 1.233-.524 1.233.524zm1.354 1.057l-.319.825-.218-1.192.815-.948.2.085q-.23.584-.48 1.229zm2.048-5.138l-.082.195-.011.026L49 22.9l-.006.014-.077.188-.014.035-.018.044-.036.087-.044.108-.015.036-.115.282-.018.045-.059.145-.023.058-.062.154-.018.044-.226.565-.008.019-.077.193-.014.036-.081.2-.089.235-.526-.223h-.005l-1.26-.535 3.013-2.252zm1.3-1.638a1.461 1.461 0 0 0-.938.036 1.414 1.414 0 0 1-.365-.917V18.4a3.769 3.769 0 0 1 3.154 3zm4.149 7.571a1.7 1.7 0 1 1-1.7-1.7 1.7 1.7 0 0 1 1.699 1.699z" class="cls-1" data-name="Path 65" transform="translate(-28.952)"/>
        </g>
    </g>
</svg>
