<svg xmlns="http://www.w3.org/2000/svg" id="edit" width="13.254" height="13.183" viewBox="0 0 13.254 13.183">
    <defs>
        <style>
            .cls-1{fill:#43a047}
        </style>
    </defs>
    <path id="Path_132" d="M12.874 26.526a.347.347 0 0 0-.347.347v3.085A1.043 1.043 0 0 1 11.485 31H1.737a1.043 1.043 0 0 1-1.042-1.042V20.9a1.043 1.043 0 0 1 1.042-1.042h3.084a.347.347 0 0 0 0-.695H1.737A1.739 1.739 0 0 0 0 20.9v9.053a1.739 1.739 0 0 0 1.737 1.737h9.748a1.739 1.739 0 0 0 1.737-1.737v-3.08a.347.347 0 0 0-.348-.347zm0 0" class="cls-1" data-name="Path 132" transform="translate(0 -18.511)"/>
    <path id="Path_133" d="M156.367 37.4l5.072-5.073 1.636 1.636L158 39.036zm0 0" class="cls-1" data-name="Path 133" transform="translate(-150.935 -31.214)"/>
    <path id="Path_134" d="M132.543 199.027l1.808-.5-1.307-1.307zm0 0" class="cls-1" data-name="Path 134" transform="translate(-127.939 -190.377)"/>
    <path id="Path_135" d="M318.124.522a.87.87 0 0 0-1.228 0l-.368.368 1.636 1.636.368-.368a.869.869 0 0 0 0-1.228zm0 0" class="cls-1" data-name="Path 135" transform="translate(-305.531 -.269)"/>
</svg>
