<svg xmlns="http://www.w3.org/2000/svg" width="43.465" height="36.587" viewBox="0 0 43.465 36.587">
    <defs>
        <style>
            .cls-1{fill:#f14c4c}
        </style>
    </defs>
    <g id="lifeline" transform="translate(-19 -57)">
        <path id="Path_60" d="M59.712 84.421a5.117 5.117 0 0 0 1.744-3.849V62.129A5.135 5.135 0 0 0 56.327 57H25.138a5.135 5.135 0 0 0-5.129 5.129v18.443a5.117 5.117 0 0 0 1.745 3.849A2.827 2.827 0 0 0 19 87.257v3.4a2.912 2.912 0 0 0 2.886 2.931h37.693a2.912 2.912 0 0 0 2.886-2.931v-3.4a2.828 2.828 0 0 0-2.753-2.836zM25.138 58.284h31.189a3.85 3.85 0 0 1 3.845 3.845v8.221h-3.026a.642.642 0 0 0-.6.413l-.281.738-.665-2.138a.633.633 0 0 0-.614-.443.632.632 0 0 0-.613.447l-.906 3-1.739-8.56a.642.642 0 0 0-1.266.046l-1.391 11.164L47.5 66.7a.642.642 0 0 0-1.255-.032l-1.223 5.052-.515-1.062a.642.642 0 0 0-.578-.362h-5.35l-.925-2.6a.64.64 0 0 0-.6-.425h-.009a.635.635 0 0 0-.6.443l-.579 1.794-1.048-3.47a.642.642 0 0 0-1.244.057L32.1 73.329l-1.413-11.294A.642.642 0 0 0 29.419 62l-1.789 9.513-.93-3.766a.642.642 0 0 0-1.212-.1l-1.128 2.6-3.064-.006v-8.112a3.85 3.85 0 0 1 3.842-3.845zm-3.846 22.288v-9.045l3.485.053a.664.664 0 0 0 .589-.41l.541-1.26 1.185 4.779a.642.642 0 0 0 1.254-.04l1.576-8.383 1.391 11.11a.642.642 0 0 0 1.266.048l1.74-8.578.905 3a.645.645 0 0 0 .609.463h.006a.648.648 0 0 0 .611-.451l.628-1.951.442 1.243a.64.64 0 0 0 .605.425h5.4l1.121 2.31a.642.642 0 0 0 1.2-.129l.941-3.891 1.779 9.407a.642.642 0 0 0 .63.523h.02a.642.642 0 0 0 .617-.562l1.42-11.333 1.467 7.217a.642.642 0 0 0 1.244.057L55 71.747l.59 1.916a.642.642 0 0 0 1.213.04l.789-2.067h2.583v8.938a3.85 3.85 0 0 1-3.845 3.845H25.138a3.85 3.85 0 0 1-3.845-3.845zm39.889 10.084a1.647 1.647 0 0 1-1.6 1.648H21.886a1.647 1.647 0 0 1-1.6-1.648v-3.4a1.563 1.563 0 0 1 1.6-1.556h2.433a.639.639 0 0 0 .213-.037 5.15 5.15 0 0 0 .606.037h31.189a5.149 5.149 0 0 0 .538-.028.641.641 0 0 0 .189.028h2.525a1.562 1.562 0 0 1 1.6 1.556z" class="cls-1" data-name="Path 60"/>
        <path id="Path_61" d="M56.247 380.44a2.247 2.247 0 1 0 2.247 2.247 2.247 2.247 0 0 0-2.247-2.247zm0 3.209a.963.963 0 1 1 .963-.963.963.963 0 0 1-.963.963z" class="cls-1" data-name="Path 61" transform="translate(-31.791 -293.781)"/>
        <path id="Path_62" d="M349.218 387h-3.576a.642.642 0 0 0-.642.642v2.751a.642.642 0 0 0 .642.642h3.576a.642.642 0 0 0 .642-.642v-2.751a.642.642 0 0 0-.642-.642zm-.642 2.751h-2.292v-1.467h2.292z" class="cls-1" data-name="Path 62" transform="translate(-296.107 -299.74)"/>
        <path id="Path_63" d="M410.035 387h-3.393a.642.642 0 0 0-.642.642v2.751a.642.642 0 0 0 .642.642h3.393a.642.642 0 0 0 .642-.642v-2.751a.642.642 0 0 0-.642-.642zm-.642 2.751h-2.109v-1.467h2.109z" class="cls-1" data-name="Path 63" transform="translate(-351.513 -299.74)"/>
        <path id="Path_64" d="M152.021 378h-11a2.02 2.02 0 0 0-2.021 2.017v1.283a2.02 2.02 0 0 0 2.017 2.017h11a2.02 2.02 0 0 0 2.017-2.017v-1.284a2.02 2.02 0 0 0-2.013-2.016zm.734 3.3a.734.734 0 0 1-.734.734h-11a.734.734 0 0 1-.734-.734v-1.284a.734.734 0 0 1 .734-.734h11a.734.734 0 0 1 .734.734z" class="cls-1" data-name="Path 64" transform="translate(-108.996 -291.565)"/>
    </g>
</svg>
